<svg width="186" height="51" viewBox="0 0 186 51" fill="none" xmlns="http://www.w3.org/2000/svg">
<g clip-path="url(#clip0_275_10)">
<path d="M39.4007 49.8574H0V10.2043C0 9.37689 0 9.26938 4.59028 4.64638C9.19927 0 9.37222 0 10.2043 0H47.8381V41.4247C47.8381 42.2241 47.4921 42.5887 46.3376 43.7994C45.7392 44.4257 44.9399 45.2437 44.0892 46.0945C43.2244 46.9639 42.4064 47.7633 41.794 48.3522C40.6161 49.4788 40.2187 49.8574 39.4054 49.8574H39.4007ZM3.618 46.2441H38.7603C39.9196 45.1736 43.1262 41.9623 44.2247 40.775V3.618H10.8166C9.39559 4.89412 4.93619 9.39559 3.618 10.8493V46.2441Z" fill="#554FF1"/>
<path d="M9.13379 42.36V35.5868L19.4456 7.3252H26.3731L36.6848 35.5307V42.3553H31.4261V36.1383L30.164 32.7026H15.6546L14.3925 36.1383V42.3553H9.13379V42.36ZM16.9167 28.2573H28.8973L22.8813 11.9809L16.9167 28.2573Z" fill="#554FF1"/>
<path d="M91.8197 49.9324H52.419C51.6056 49.9324 51.2083 49.5538 50.0304 48.4272C49.4133 47.8382 48.6 47.0389 47.7352 46.1695C46.8845 45.3141 46.0851 44.5007 45.4868 43.8743C44.3322 42.6637 43.9863 42.2991 43.9863 41.4997V0.0703125H81.6201C82.4522 0.0703125 82.6204 0.0703125 87.2341 4.71202C91.8244 9.33502 91.8244 9.44253 91.8244 10.2699V49.9277L91.8197 49.9324ZM53.0641 46.3144H88.2064V10.9197C86.8835 9.4659 82.4288 4.95976 81.0078 3.68832H47.6043V40.8453C48.7028 42.0326 51.9048 45.2439 53.0687 46.3144H53.0641Z" fill="#554FF1"/>
<path d="M59.1174 42.3641L55.5789 38.8256V10.8211L59.1174 7.33398H76.6091L80.0962 10.8211V18.7583H74.8889V12.0832H60.8376V37.5588H74.8889V30.9352H80.0962V38.8209L76.6091 42.3594H59.1174V42.3641Z" fill="#554FF1"/>
<path d="M138.181 50.8435L138.096 9.41873C138.096 8.6194 138.442 8.2548 139.592 7.04412C140.191 6.41307 140.985 5.59972 141.836 4.7443C142.701 3.87486 143.514 3.07086 144.126 2.48188C145.304 1.35067 145.702 0.972043 146.51 0.972043L185.911 0.892578L185.991 40.5504C185.991 41.3778 185.991 41.4853 181.414 46.1176C176.815 50.7687 176.642 50.7687 175.81 50.7734L138.176 50.8481L138.181 50.8435ZM141.714 10.0638L141.789 47.2208L175.193 47.1553C176.614 45.8792 181.059 41.3637 182.377 39.91L182.307 4.51526L147.165 4.58537C146.006 5.66049 142.808 8.87649 141.714 10.0685V10.0638Z" fill="#554FF1"/>
<path d="M98.5275 50.8393C97.7329 50.8393 97.4851 50.7551 92.951 46.2069C88.3513 41.5933 88.3513 41.4858 88.3513 40.6584L88.2719 1.00057L133.184 0.925781H133.188C133.997 0.925781 134.394 1.30441 135.572 2.42627C136.189 3.01057 137.007 3.81458 137.872 4.67934C138.723 5.53009 139.527 6.34344 140.125 6.96981C141.28 8.17581 141.63 8.54042 141.63 9.33974L141.715 50.7645L98.5696 50.8393H98.5229H98.5275ZM91.9646 40.004C93.2875 41.453 97.7563 45.9498 99.182 47.2213L138.097 47.1558L138.022 9.99884C136.923 8.81153 133.712 5.60955 132.548 4.53911L91.8945 4.60923L91.9646 40.004Z" fill="#554FF1"/>
<path d="M97.0131 7.8291H101.229V14.1489L106.783 36.1187L112.537 14.1489V7.8291H116.753V14.1489L122.507 36.1187L128.103 14.1489V7.8291H132.319V14.3967L125.022 42.0459H120.399L114.603 20.5716L108.928 42.0459H104.305L97.0084 14.3967V7.8291H97.0131Z" fill="#554FF1"/>
<path d="M125.237 42.3268H120.184L120.128 42.1211L114.603 21.6611L109.143 42.3314H104.09L96.7279 14.4017V7.55371H101.505V14.1213L106.783 34.9973L112.252 14.1166V7.55371H117.029V14.1166L122.498 35.0019L127.813 14.1213V7.55839H132.59L132.581 14.4765L125.228 42.3314L125.237 42.3268ZM120.619 41.7658H124.807L132.039 14.3643V8.11464H128.383V14.1867L122.512 37.2457L116.473 14.154V8.11464H112.817V14.1914L112.808 14.2241L106.773 37.2503L100.944 14.154V8.11464H97.2888V14.3643L104.52 41.7658H108.708L114.598 19.4828L120.614 41.7658H120.619Z" fill="#554FF1"/>
<path d="M147.534 42.4061V35.6329L157.846 7.37598H164.773L175.085 35.5815V42.4061H169.827V36.1891L168.564 32.7534H154.055L152.793 36.1891V42.4061H147.534ZM155.317 28.3034H167.298L161.282 12.027L155.317 28.3034Z" fill="#554FF1"/>
</g>
<defs>
<clipPath id="clip0_275_10">
<rect width="186" height="50.8437" fill="white"/>
</clipPath>
</defs>
</svg>
